<svg xmlns="http://www.w3.org/2000/svg" width="1865" height="1245" viewBox="0 0 1865 1245">
<defs><marker id="arrow" markerWidth="8" markerHeight="8" refX="7" refY="4" orient="auto"><path d="M0,0 L8,4 L0,8 z" fill="#555"/></marker></defs>
<style>text{font-family:DejaVu Sans,Arial,sans-serif;fill:#222}.title{font-size:22px;font-weight:bold}.label{font-size:12px}.small{font-size:10px}.edge{stroke:#555;stroke-width:1.4;fill:none}</style>
<g transform="translate(0,0)"><text x="20" y="28" class="title">Gesamtarchitektur</text>
<line class="edge" x1="70.0" y1="240.0" x2="260.0" y2="250.0" marker-end="url(#arrow)"/>
<text x="165.0" y="241.0" class="small">uses</text>
<line class="edge" x1="70.0" y1="445.0" x2="260.0" y2="420.0" marker-end="url(#arrow)"/>
<text x="165.0" y="428.5" class="small">MCP</text>
<line class="edge" x1="260.0" y1="250.0" x2="530.0" y2="325.0" marker-end="url(#arrow)"/>
<text x="395.0" y="283.5" class="small">commands</text>
<line class="edge" x1="260.0" y1="420.0" x2="1045.0" y2="507.5" marker-end="url(#arrow)"/>
<text x="652.5" y="459.75" class="small">use cases</text>
<line class="edge" x1="530.0" y1="457.5" x2="530.0" y2="325.0" marker-end="url(#arrow)"/>
<text x="530.0" y="387.25" class="small">configuration</text>
<line class="edge" x1="530.0" y1="325.0" x2="805.0" y2="252.5" marker-end="url(#arrow)"/>
<text x="667.5" y="284.75" class="small">wires</text>
<line class="edge" x1="530.0" y1="325.0" x2="1045.0" y2="252.5" marker-end="url(#arrow)"/>
<text x="787.5" y="284.75" class="small">wires</text>
<line class="edge" x1="530.0" y1="325.0" x2="805.0" y2="382.5" marker-end="url(#arrow)"/>
<text x="667.5" y="349.75" class="small">wires</text>
<line class="edge" x1="530.0" y1="325.0" x2="1045.0" y2="382.5" marker-end="url(#arrow)"/>
<text x="787.5" y="349.75" class="small">wires</text>
<line class="edge" x1="530.0" y1="325.0" x2="805.0" y2="507.5" marker-end="url(#arrow)"/>
<text x="667.5" y="412.25" class="small">wires</text>
<line class="edge" x1="530.0" y1="325.0" x2="1045.0" y2="507.5" marker-end="url(#arrow)"/>
<text x="787.5" y="412.25" class="small">wires</text>
<line class="edge" x1="805.0" y1="252.5" x2="927.5" y2="647.5" marker-end="url(#arrow)"/>
<text x="866.25" y="446.0" class="small">uses</text>
<line class="edge" x1="1045.0" y1="252.5" x2="927.5" y2="647.5" marker-end="url(#arrow)"/>
<text x="986.25" y="446.0" class="small">uses</text>
<line class="edge" x1="805.0" y1="382.5" x2="927.5" y2="647.5" marker-end="url(#arrow)"/>
<text x="866.25" y="511.0" class="small">uses</text>
<line class="edge" x1="1045.0" y1="382.5" x2="927.5" y2="647.5" marker-end="url(#arrow)"/>
<text x="986.25" y="511.0" class="small">uses</text>
<line class="edge" x1="805.0" y1="507.5" x2="927.5" y2="647.5" marker-end="url(#arrow)"/>
<text x="866.25" y="573.5" class="small">uses</text>
<line class="edge" x1="1045.0" y1="507.5" x2="927.5" y2="647.5" marker-end="url(#arrow)"/>
<text x="986.25" y="573.5" class="small">uses</text>
<line class="edge" x1="805.0" y1="252.5" x2="1330.5" y2="655.0" marker-end="url(#arrow)"/>
<line class="edge" x1="805.0" y1="252.5" x2="1330.5" y2="235.0" marker-end="url(#arrow)"/>
<line class="edge" x1="1045.0" y1="252.5" x2="1330.5" y2="235.0" marker-end="url(#arrow)"/>
<line class="edge" x1="1045.0" y1="252.5" x2="1330.5" y2="320.0" marker-end="url(#arrow)"/>
<line class="edge" x1="1045.0" y1="252.5" x2="1330.5" y2="405.0" marker-end="url(#arrow)"/>
<line class="edge" x1="805.0" y1="382.5" x2="1330.5" y2="235.0" marker-end="url(#arrow)"/>
<line class="edge" x1="1045.0" y1="382.5" x2="1330.5" y2="572.5" marker-end="url(#arrow)"/>
<line class="edge" x1="1045.0" y1="382.5" x2="1330.5" y2="235.0" marker-end="url(#arrow)"/>
<line class="edge" x1="805.0" y1="507.5" x2="1330.5" y2="490.0" marker-end="url(#arrow)"/>
<line class="edge" x1="805.0" y1="507.5" x2="1330.5" y2="235.0" marker-end="url(#arrow)"/>
<line class="edge" x1="1045.0" y1="507.5" x2="1330.5" y2="235.0" marker-end="url(#arrow)"/>
<line class="edge" x1="1577.5" y1="250.0" x2="1330.5" y2="235.0" marker-end="url(#arrow)"/>
<text x="1454.0" y="238.5" class="small">implements</text>
<line class="edge" x1="1577.5" y1="250.0" x2="1330.5" y2="655.0" marker-end="url(#arrow)"/>
<text x="1454.0" y="448.5" class="small">implements</text>
<line class="edge" x1="1732.5" y1="250.0" x2="1330.5" y2="320.0" marker-end="url(#arrow)"/>
<text x="1531.5" y="281.0" class="small">implements</text>
<line class="edge" x1="1577.5" y1="377.5" x2="1330.5" y2="405.0" marker-end="url(#arrow)"/>
<text x="1454.0" y="387.25" class="small">implements</text>
<line class="edge" x1="1732.5" y1="377.5" x2="1330.5" y2="490.0" marker-end="url(#arrow)"/>
<text x="1531.5" y="429.75" class="small">implements</text>
<line class="edge" x1="1655.0" y1="507.5" x2="1330.5" y2="572.5" marker-end="url(#arrow)"/>
<text x="1492.75" y="536.0" class="small">implements</text>
<line class="edge" x1="1732.5" y1="635.0" x2="1330.5" y2="235.0" marker-end="url(#arrow)"/>
<text x="1531.5" y="431.0" class="small">implements</text>
<line class="edge" x1="240.0" y1="890.0" x2="1732.5" y2="250.0" marker-end="url(#arrow)"/>
<text x="986.25" y="566.0" class="small">input</text>
<line class="edge" x1="1732.5" y1="250.0" x2="945.0" y2="890.0" marker-end="url(#arrow)"/>
<text x="1338.75" y="566.0" class="small">converts</text>
<line class="edge" x1="1577.5" y1="250.0" x2="460.0" y2="890.0" marker-end="url(#arrow)"/>
<text x="1018.75" y="566.0" class="small">read / write</text>
<line class="edge" x1="1577.5" y1="377.5" x2="460.0" y2="890.0" marker-end="url(#arrow)"/>
<text x="1018.75" y="629.75" class="small">read / write</text>
<line class="edge" x1="1732.5" y1="377.5" x2="700.0" y2="890.0" marker-end="url(#arrow)"/>
<text x="1216.25" y="629.75" class="small">publish</text>
<line class="edge" x1="1655.0" y1="507.5" x2="1170.0" y2="890.0" marker-end="url(#arrow)"/>
<text x="1412.5" y="694.75" class="small">OpenAI-compatible API</text>
<line class="edge" x1="1655.0" y1="507.5" x2="1405.0" y2="890.0" marker-end="url(#arrow)"/>
<text x="1530.0" y="694.75" class="small">CLI invocation</text>
<line class="edge" x1="1577.5" y1="635.0" x2="1650.0" y2="890.0" marker-end="url(#arrow)"/>
<text x="1613.75" y="758.5" class="small">HTTP / streamable MCP</text>
<line class="edge" x1="260.0" y1="420.0" x2="1577.5" y2="635.0" marker-end="url(#arrow)"/>
<text x="918.75" y="523.5" class="small">transport</text>
<line class="edge" x1="1045.0" y1="507.5" x2="1732.5" y2="635.0" marker-end="url(#arrow)"/>
<text x="1388.75" y="567.25" class="small">projection</text>
<rect x="35.0" y="60.0" width="1300.0" height="36.0" rx="0" fill="none" stroke="none"/>
<clipPath id="clip_title_0"><rect x="38.0" y="63.0" width="1294.0" height="30.0"/></clipPath>
<text x="43.0" y="82.0" font-size="24" font-weight="bold" clip-path="url(#clip_title_0)">Standards Atlas — Gesamtarchitektur (UML-Komponentensicht)</text>
<rect x="37.0" y="96.0" width="700.0" height="24.0" rx="0" fill="none" stroke="none"/>
<clipPath id="clip_subtitle_0"><rect x="40.0" y="99.0" width="694.0" height="18.0"/></clipPath>
<text x="45.0" y="115.0" font-size="12" font-weight="bold" clip-path="url(#clip_subtitle_0)">Aktueller Stand nach ADR 0003, ADR 0050 und ADR 0051</text>
<circle cx="70.0" cy="206.0" r="10" fill="white" stroke="#555"/>
<line class="edge" x1="70.0" y1="216.0" x2="70.0" y2="250.0"/>
<line class="edge" x1="52.0" y1="230.0" x2="88.0" y2="230.0"/>
<line class="edge" x1="70.0" y1="250.0" x2="54.0" y2="272.0"/>
<line class="edge" x1="70.0" y1="250.0" x2="86.0" y2="272.0"/>
<text x="38.0" y="209.0" font-size="12" font-weight="bold">Benutzer</text>
<text x="38.0" y="224.0" font-size="12">/</text>
<text x="38.0" y="239.0" font-size="12">Reviewer</text>
<circle cx="70.0" cy="411.0" r="10" fill="white" stroke="#555"/>
<line class="edge" x1="70.0" y1="421.0" x2="70.0" y2="455.0"/>
<line class="edge" x1="52.0" y1="435.0" x2="88.0" y2="435.0"/>
<line class="edge" x1="70.0" y1="455.0" x2="54.0" y2="477.0"/>
<line class="edge" x1="70.0" y1="455.0" x2="86.0" y2="477.0"/>
<text x="38.0" y="414.0" font-size="12" font-weight="bold">MCP-Client</text>
<text x="38.0" y="429.0" font-size="12">/ Codex</text>
<rect x="140.0" y="145.0" width="245.0" height="390.0" rx="8" fill="#f5f5f5" stroke="#666666"/>
<clipPath id="clip_inbound_box_0"><rect x="143.0" y="148.0" width="239.0" height="384.0"/></clipPath>
<text x="148.0" y="167.0" font-size="15" font-weight="bold" clip-path="url(#clip_inbound_box_0)">Inbound Adapter</text>
<rect x="165.0" y="205.0" width="190.0" height="90.0" rx="0" fill="#dae8fc" stroke="#6c8ebf"/>
<clipPath id="clip_cli_0"><rect x="168.0" y="208.0" width="184.0" height="84.0"/></clipPath>
<text x="173.0" y="225.0" font-size="13" font-weight="bold" clip-path="url(#clip_cli_0)">«component» CLI Typer</text>
<text x="173.0" y="241.0" font-size="13" clip-path="url(#clip_cli_0)">commands</text>
<rect x="165.0" y="365.0" width="190.0" height="110.0" rx="0" fill="#dae8fc" stroke="#6c8ebf"/>
<clipPath id="clip_mcp_0"><rect x="168.0" y="368.0" width="184.0" height="104.0"/></clipPath>
<text x="173.0" y="385.0" font-size="13" font-weight="bold" clip-path="url(#clip_mcp_0)">«component» MCP HTTP</text>
<text x="173.0" y="401.0" font-size="13" clip-path="url(#clip_mcp_0)">Server Tools ·</text>
<text x="173.0" y="417.0" font-size="13" clip-path="url(#clip_mcp_0)">Resources · Auth</text>
<rect x="420.0" y="145.0" width="220.0" height="390.0" rx="8" fill="#f5f5f5" stroke="#666666"/>
<clipPath id="clip_composition_box_0"><rect x="423.0" y="148.0" width="214.0" height="384.0"/></clipPath>
<text x="428.0" y="167.0" font-size="15" font-weight="bold" clip-path="url(#clip_composition_box_0)">Composition Root</text>
<rect x="445.0" y="260.0" width="170.0" height="130.0" rx="0" fill="#d5e8d4" stroke="#82b366"/>
<clipPath id="clip_composition_0"><rect x="448.0" y="263.0" width="164.0" height="124.0"/></clipPath>
<text x="453.0" y="280.0" font-size="13" font-weight="bold" clip-path="url(#clip_composition_0)">«component» CLI</text>
<text x="453.0" y="296.0" font-size="13" clip-path="url(#clip_composition_0)">Composition Adapter</text>
<text x="453.0" y="312.0" font-size="13" clip-path="url(#clip_composition_0)">wiring · lifecycle</text>
<rect x="445.0" y="420.0" width="170.0" height="75.0" rx="0" fill="#dae8fc" stroke="#6c8ebf"/>
<clipPath id="clip_config_0"><rect x="448.0" y="423.0" width="164.0" height="69.0"/></clipPath>
<text x="453.0" y="440.0" font-size="13" font-weight="bold" clip-path="url(#clip_config_0)">«component» Runtime</text>
<text x="453.0" y="456.0" font-size="13" clip-path="url(#clip_config_0)">Configuration</text>
<text x="453.0" y="472.0" font-size="13" clip-path="url(#clip_config_0)">Catalog · LLM · MCP</text>
<rect x="675.0" y="145.0" width="505.0" height="600.0" rx="8" fill="#f5f5f5" stroke="#666666"/>
<clipPath id="clip_core_box_0"><rect x="678.0" y="148.0" width="499.0" height="594.0"/></clipPath>
<text x="683.0" y="167.0" font-size="15" font-weight="bold" clip-path="url(#clip_core_box_0)">Application Core</text>
<rect x="700.0" y="200.0" width="210.0" height="105.0" rx="0" fill="#d5e8d4" stroke="#82b366"/>
<clipPath id="clip_workflow_0"><rect x="703.0" y="203.0" width="204.0" height="99.0"/></clipPath>
<text x="708.0" y="220.0" font-size="13" font-weight="bold" clip-path="url(#clip_workflow_0)">«component» Workflow</text>
<text x="708.0" y="236.0" font-size="13" clip-path="url(#clip_workflow_0)">Orchestration Planning ·</text>
<text x="708.0" y="252.0" font-size="13" clip-path="url(#clip_workflow_0)">recovery · execution</text>
<rect x="940.0" y="200.0" width="210.0" height="105.0" rx="0" fill="#d5e8d4" stroke="#82b366"/>
<clipPath id="clip_processing_0"><rect x="943.0" y="203.0" width="204.0" height="99.0"/></clipPath>
<text x="948.0" y="220.0" font-size="13" font-weight="bold" clip-path="url(#clip_processing_0)">«component» Document</text>
<text x="948.0" y="236.0" font-size="13" clip-path="url(#clip_processing_0)">Processing Normalization</text>
<text x="948.0" y="252.0" font-size="13" clip-path="url(#clip_processing_0)">· alignment ·</text>
<text x="948.0" y="268.0" font-size="13" clip-path="url(#clip_processing_0)">construction</text>
<rect x="700.0" y="335.0" width="210.0" height="95.0" rx="0" fill="#d5e8d4" stroke="#82b366"/>
<clipPath id="clip_review_0"><rect x="703.0" y="338.0" width="204.0" height="89.0"/></clipPath>
<text x="708.0" y="355.0" font-size="13" font-weight="bold" clip-path="url(#clip_review_0)">«component» Review &amp;</text>
<text x="708.0" y="371.0" font-size="13" clip-path="url(#clip_review_0)">Composition HITL ·</text>
<text x="708.0" y="387.0" font-size="13" clip-path="url(#clip_review_0)">selection · multipart</text>
<rect x="940.0" y="335.0" width="210.0" height="95.0" rx="0" fill="#d5e8d4" stroke="#82b366"/>
<clipPath id="clip_evaluation_0"><rect x="943.0" y="338.0" width="204.0" height="89.0"/></clipPath>
<text x="948.0" y="355.0" font-size="13" font-weight="bold" clip-path="url(#clip_evaluation_0)">«component» Semantic</text>
<text x="948.0" y="371.0" font-size="13" clip-path="url(#clip_evaluation_0)">Evaluation Classification</text>
<text x="948.0" y="387.0" font-size="13" clip-path="url(#clip_evaluation_0)">· qualification ·</text>
<text x="948.0" y="403.0" font-size="13" clip-path="url(#clip_evaluation_0)">consensus</text>
<rect x="700.0" y="460.0" width="210.0" height="95.0" rx="0" fill="#d5e8d4" stroke="#82b366"/>
<clipPath id="clip_publication_0"><rect x="703.0" y="463.0" width="204.0" height="89.0"/></clipPath>
<text x="708.0" y="480.0" font-size="13" font-weight="bold" clip-path="url(#clip_publication_0)">«component» Publication</text>
<text x="708.0" y="496.0" font-size="13" clip-path="url(#clip_publication_0)">Services Markdown ·</text>
<text x="708.0" y="512.0" font-size="13" clip-path="url(#clip_publication_0)">Doorstop · TOC</text>
<rect x="940.0" y="460.0" width="210.0" height="95.0" rx="0" fill="#d5e8d4" stroke="#82b366"/>
<clipPath id="clip_clause_access_0"><rect x="943.0" y="463.0" width="204.0" height="89.0"/></clipPath>
<text x="948.0" y="480.0" font-size="13" font-weight="bold" clip-path="url(#clip_clause_access_0)">«component» Clause Access</text>
<text x="948.0" y="496.0" font-size="13" clip-path="url(#clip_clause_access_0)">Evaluation and MCP</text>
<text x="948.0" y="512.0" font-size="13" clip-path="url(#clip_clause_access_0)">projections</text>
<rect x="750.0" y="590.0" width="355.0" height="115.0" rx="0" fill="#fff2cc" stroke="#d6b656"/>
<clipPath id="clip_domain_core_0"><rect x="753.0" y="593.0" width="349.0" height="109.0"/></clipPath>
<text x="758.0" y="610.0" font-size="13" font-weight="bold" clip-path="url(#clip_domain_core_0)">«component» Canonical Domain Model</text>
<text x="758.0" y="626.0" font-size="13" font-weight="bold" clip-path="url(#clip_domain_core_0)">EngineeringDocument · Clause · ContentBlock</text>
<text x="758.0" y="642.0" font-size="13" clip-path="url(#clip_domain_core_0)">StructuralProfile · SemanticClassification</text>
<rect x="1215.0" y="145.0" width="235.0" height="600.0" rx="8" fill="#f5f5f5" stroke="#666666"/>
<clipPath id="clip_ports_box_0"><rect x="1218.0" y="148.0" width="229.0" height="594.0"/></clipPath>
<text x="1223.0" y="167.0" font-size="15" font-weight="bold" clip-path="url(#clip_ports_box_0)">Application Ports</text>
<rect x="1243.0" y="205.0" width="175.0" height="60.0" rx="0" fill="#ffffff" stroke="#9673a6"/>
<clipPath id="clip_p_docs_0"><rect x="1246.0" y="208.0" width="169.0" height="54.0"/></clipPath>
<text x="1251.0" y="223.0" font-size="11" font-weight="bold" clip-path="url(#clip_p_docs_0)">Document &amp; Artifact</text>
<text x="1251.0" y="237.0" font-size="11" clip-path="url(#clip_p_docs_0)">Repositories</text>
<rect x="1243.0" y="290.0" width="175.0" height="60.0" rx="0" fill="#ffffff" stroke="#9673a6"/>
<clipPath id="clip_p_convert_0"><rect x="1246.0" y="293.0" width="169.0" height="54.0"/></clipPath>
<text x="1251.0" y="308.0" font-size="11" font-weight="bold" clip-path="url(#clip_p_convert_0)">Document Converter /</text>
<text x="1251.0" y="322.0" font-size="11" clip-path="url(#clip_p_convert_0)">Extracted Reader</text>
<rect x="1243.0" y="375.0" width="175.0" height="60.0" rx="0" fill="#ffffff" stroke="#9673a6"/>
<clipPath id="clip_p_import_0"><rect x="1246.0" y="378.0" width="169.0" height="54.0"/></clipPath>
<text x="1251.0" y="393.0" font-size="11" font-weight="bold" clip-path="url(#clip_p_import_0)">Catalog &amp; AtlasData</text>
<text x="1251.0" y="407.0" font-size="11" clip-path="url(#clip_p_import_0)">Import</text>
<rect x="1243.0" y="460.0" width="175.0" height="60.0" rx="0" fill="#ffffff" stroke="#9673a6"/>
<clipPath id="clip_p_export_0"><rect x="1246.0" y="463.0" width="169.0" height="54.0"/></clipPath>
<text x="1251.0" y="478.0" font-size="11" font-weight="bold" clip-path="url(#clip_p_export_0)">Document Export /</text>
<text x="1251.0" y="492.0" font-size="11" clip-path="url(#clip_p_export_0)">Publication</text>
<rect x="1243.0" y="545.0" width="175.0" height="55.0" rx="0" fill="#ffffff" stroke="#9673a6"/>
<clipPath id="clip_p_llm_0"><rect x="1246.0" y="548.0" width="169.0" height="49.0"/></clipPath>
<text x="1251.0" y="563.0" font-size="11" font-weight="bold" clip-path="url(#clip_p_llm_0)">LLM Gateway</text>
<rect x="1243.0" y="625.0" width="175.0" height="60.0" rx="0" fill="#ffffff" stroke="#9673a6"/>
<clipPath id="clip_p_workflow_0"><rect x="1246.0" y="628.0" width="169.0" height="54.0"/></clipPath>
<text x="1251.0" y="643.0" font-size="11" font-weight="bold" clip-path="url(#clip_p_workflow_0)">Workflow Artifact Store</text>
<rect x="1485.0" y="145.0" width="340.0" height="600.0" rx="8" fill="#f5f5f5" stroke="#666666"/>
<clipPath id="clip_adapters_box_0"><rect x="1488.0" y="148.0" width="334.0" height="594.0"/></clipPath>
<text x="1493.0" y="167.0" font-size="15" font-weight="bold" clip-path="url(#clip_adapters_box_0)">Outbound Adapter</text>
<rect x="1505.0" y="200.0" width="145.0" height="100.0" rx="0" fill="#e1d5e7" stroke="#9673a6"/>
<clipPath id="clip_a_fs_0"><rect x="1508.0" y="203.0" width="139.0" height="94.0"/></clipPath>
<text x="1513.0" y="219.0" font-size="12" font-weight="bold" clip-path="url(#clip_a_fs_0)">«component»</text>
<text x="1513.0" y="234.0" font-size="12" clip-path="url(#clip_a_fs_0)">Filesystem</text>
<text x="1513.0" y="249.0" font-size="12" clip-path="url(#clip_a_fs_0)">Repositories</text>
<text x="1513.0" y="264.0" font-size="12" clip-path="url(#clip_a_fs_0)">Engineering docs ·</text>
<text x="1513.0" y="279.0" font-size="12" clip-path="url(#clip_a_fs_0)">intermediate</text>
<rect x="1660.0" y="200.0" width="145.0" height="100.0" rx="0" fill="#e1d5e7" stroke="#9673a6"/>
<clipPath id="clip_a_docling_0"><rect x="1663.0" y="203.0" width="139.0" height="94.0"/></clipPath>
<text x="1668.0" y="219.0" font-size="12" font-weight="bold" clip-path="url(#clip_a_docling_0)">«component»</text>
<text x="1668.0" y="234.0" font-size="12" clip-path="url(#clip_a_docling_0)">Docling Adapter</text>
<text x="1668.0" y="249.0" font-size="12" clip-path="url(#clip_a_docling_0)">PDF conversion ·</text>
<text x="1668.0" y="264.0" font-size="12" clip-path="url(#clip_a_docling_0)">JSON reading</text>
<rect x="1505.0" y="325.0" width="145.0" height="105.0" rx="0" fill="#e1d5e7" stroke="#9673a6"/>
<clipPath id="clip_a_atlas_0"><rect x="1508.0" y="328.0" width="139.0" height="99.0"/></clipPath>
<text x="1513.0" y="344.0" font-size="12" font-weight="bold" clip-path="url(#clip_a_atlas_0)">«component»</text>
<text x="1513.0" y="359.0" font-size="12" clip-path="url(#clip_a_atlas_0)">AtlasData /</text>
<text x="1513.0" y="374.0" font-size="12" clip-path="url(#clip_a_atlas_0)">Catalog Import ·</text>
<text x="1513.0" y="389.0" font-size="12" clip-path="url(#clip_a_atlas_0)">lifecycle · round</text>
<text x="1513.0" y="404.0" font-size="12" clip-path="url(#clip_a_atlas_0)">trip</text>
<rect x="1660.0" y="325.0" width="145.0" height="105.0" rx="0" fill="#e1d5e7" stroke="#9673a6"/>
<clipPath id="clip_a_publish_0"><rect x="1663.0" y="328.0" width="139.0" height="99.0"/></clipPath>
<text x="1668.0" y="344.0" font-size="12" font-weight="bold" clip-path="url(#clip_a_publish_0)">«component»</text>
<text x="1668.0" y="359.0" font-size="12" clip-path="url(#clip_a_publish_0)">Markdown /</text>
<text x="1668.0" y="374.0" font-size="12" clip-path="url(#clip_a_publish_0)">Doorstop Export ·</text>
<text x="1668.0" y="389.0" font-size="12" clip-path="url(#clip_a_publish_0)">rendering ·</text>
<text x="1668.0" y="404.0" font-size="12" clip-path="url(#clip_a_publish_0)">templates</text>
<rect x="1505.0" y="455.0" width="300.0" height="105.0" rx="0" fill="#e1d5e7" stroke="#9673a6"/>
<clipPath id="clip_a_llm_0"><rect x="1508.0" y="458.0" width="294.0" height="99.0"/></clipPath>
<text x="1513.0" y="474.0" font-size="12" font-weight="bold" clip-path="url(#clip_a_llm_0)">«component» LLM Adapters RamaLama ·</text>
<text x="1513.0" y="489.0" font-size="12" clip-path="url(#clip_a_llm_0)">OpenAI-compatible · Codex CLI</text>
<rect x="1505.0" y="585.0" width="145.0" height="100.0" rx="0" fill="#e1d5e7" stroke="#9673a6"/>
<clipPath id="clip_a_mcp_0"><rect x="1508.0" y="588.0" width="139.0" height="94.0"/></clipPath>
<text x="1513.0" y="604.0" font-size="12" font-weight="bold" clip-path="url(#clip_a_mcp_0)">«component» MCP</text>
<text x="1513.0" y="619.0" font-size="12" clip-path="url(#clip_a_mcp_0)">Infrastructure</text>
<text x="1513.0" y="634.0" font-size="12" clip-path="url(#clip_a_mcp_0)">HTTP · audit ·</text>
<text x="1513.0" y="649.0" font-size="12" clip-path="url(#clip_a_mcp_0)">process control</text>
<rect x="1660.0" y="585.0" width="145.0" height="100.0" rx="0" fill="#e1d5e7" stroke="#9673a6"/>
<clipPath id="clip_a_eval_0"><rect x="1663.0" y="588.0" width="139.0" height="94.0"/></clipPath>
<text x="1668.0" y="604.0" font-size="12" font-weight="bold" clip-path="url(#clip_a_eval_0)">«component»</text>
<text x="1668.0" y="619.0" font-size="12" clip-path="url(#clip_a_eval_0)">Evaluation Adapter</text>
<text x="1668.0" y="634.0" font-size="12" clip-path="url(#clip_a_eval_0)">EngineeringDocument</text>
<text x="1668.0" y="649.0" font-size="12" clip-path="url(#clip_a_eval_0)">clause provider</text>
<rect x="140.0" y="785.0" width="1685.0" height="250.0" rx="8" fill="#f5f5f5" stroke="#666666"/>
<clipPath id="clip_infra_box_0"><rect x="143.0" y="788.0" width="1679.0" height="244.0"/></clipPath>
<text x="148.0" y="807.0" font-size="15" font-weight="bold" clip-path="url(#clip_infra_box_0)">Persistenz, Publikation und externe Systeme</text>
<rect x="165.0" y="850.0" width="150.0" height="80.0" rx="0" fill="#ffe6cc" stroke="#d79b00"/>
<clipPath id="clip_source_pdf_0"><rect x="168.0" y="853.0" width="144.0" height="74.0"/></clipPath>
<text x="173.0" y="869.0" font-size="12" font-weight="bold" clip-path="url(#clip_source_pdf_0)">Private / public</text>
<text x="173.0" y="884.0" font-size="12" clip-path="url(#clip_source_pdf_0)">source PDFs</text>
<rect x="360.0" y="840.0" width="200.0" height="100.0" rx="0" fill="#f5f5f5" stroke="#666666"/>
<clipPath id="clip_workspace_0"><rect x="363.0" y="843.0" width="194.0" height="94.0"/></clipPath>
<text x="368.0" y="859.0" font-size="12" font-weight="bold" clip-path="url(#clip_workspace_0)">.atlas workspace canonical</text>
<text x="368.0" y="874.0" font-size="12" clip-path="url(#clip_workspace_0)">+ intermediate artifacts</text>
<rect x="605.0" y="850.0" width="190.0" height="80.0" rx="0" fill="#ffe6cc" stroke="#d79b00"/>
<clipPath id="clip_local_0"><rect x="608.0" y="853.0" width="184.0" height="74.0"/></clipPath>
<text x="613.0" y="869.0" font-size="12" font-weight="bold" clip-path="url(#clip_local_0)">local/ publications</text>
<text x="613.0" y="884.0" font-size="12" clip-path="url(#clip_local_0)">Markdown · Doorstop HTML</text>
<rect x="860.0" y="850.0" width="170.0" height="80.0" rx="0" fill="#f8cecc" stroke="#b85450"/>
<clipPath id="clip_docling_ext_0"><rect x="863.0" y="853.0" width="164.0" height="74.0"/></clipPath>
<text x="868.0" y="869.0" font-size="12" font-weight="bold" clip-path="url(#clip_docling_ext_0)">Docling runtime</text>
<rect x="1075.0" y="850.0" width="190.0" height="80.0" rx="0" fill="#f8cecc" stroke="#b85450"/>
<clipPath id="clip_ramalama_0"><rect x="1078.0" y="853.0" width="184.0" height="74.0"/></clipPath>
<text x="1083.0" y="869.0" font-size="12" font-weight="bold" clip-path="url(#clip_ramalama_0)">RamaLama / llama.cpp GPU</text>
<text x="1083.0" y="884.0" font-size="12" clip-path="url(#clip_ramalama_0)">model server</text>
<rect x="1310.0" y="850.0" width="190.0" height="80.0" rx="0" fill="#f8cecc" stroke="#b85450"/>
<clipPath id="clip_codex_ext_0"><rect x="1313.0" y="853.0" width="184.0" height="74.0"/></clipPath>
<text x="1318.0" y="869.0" font-size="12" font-weight="bold" clip-path="url(#clip_codex_ext_0)">Codex CLI / external</text>
<text x="1318.0" y="884.0" font-size="12" clip-path="url(#clip_codex_ext_0)">model provider</text>
<rect x="1545.0" y="850.0" width="210.0" height="80.0" rx="0" fill="#f8cecc" stroke="#b85450"/>
<clipPath id="clip_mcp_consumers_0"><rect x="1548.0" y="853.0" width="204.0" height="74.0"/></clipPath>
<text x="1553.0" y="869.0" font-size="12" font-weight="bold" clip-path="url(#clip_mcp_consumers_0)">MCP consumers Codex ·</text>
<text x="1553.0" y="884.0" font-size="12" clip-path="url(#clip_mcp_consumers_0)">Inspector · agents</text>
<rect x="35.0" y="1060.0" width="380.0" height="105.0" rx="0" fill="#fff2cc" stroke="#d6b656"/>
<clipPath id="clip_legend_0"><rect x="38.0" y="1063.0" width="374.0" height="99.0"/></clipPath>
<text x="43.0" y="1078.0" font-size="11" font-weight="bold" clip-path="url(#clip_legend_0)">Notation: → Aufruf / Datenfluss ⇢ gestrichelt:</text>
<text x="43.0" y="1092.0" font-size="11" clip-path="url(#clip_legend_0)">Abhängigkeit oder Port-Nutzung ▷ gestrichelt: Adapter</text>
<text x="43.0" y="1106.0" font-size="11" clip-path="url(#clip_legend_0)">implementiert Port</text>
</g>
</svg>